<?xml version="1.0" encoding="utf-8"?>
<!-- Generator: Adobe Illustrator 25.3.1, SVG Export Plug-In . SVG Version: 6.00 Build 0)  -->
<svg version="1.1" id="Layer_1" xmlns="http://www.w3.org/2000/svg" xmlns:xlink="http://www.w3.org/1999/xlink" x="0px" y="0px"
	 viewBox="0 0 836.3 224.2" style="enable-background:new 0 0 836.3 224.2;" xml:space="preserve">
<style type="text/css">
	.st0{fill-rule:evenodd;clip-rule:evenodd;fill:#A52F5C;}
</style>
<path class="st0" d="M114.3,81.9l38.8,1c6.3,0.2,11.6,4.2,13.6,10.1c1.9,5.9-0.1,12.4-5,16.2l-30.8,23.6l11,37.2
	c1.8,6-0.4,12.3-5.4,16c-5.1,3.7-11.8,3.8-16.9,0.2l-31.9-22l-31.9,22c-5.2,3.6-11.8,3.5-16.9-0.2c-5.1-3.7-7.2-10-5.4-16l11-37.2
	l-30.8-23.6c-4.9-3.8-6.9-10.2-5-16.2c1.9-6,7.3-10,13.6-10.1l38.8-1l12.9-36.6c2.1-5.9,7.5-9.8,13.8-9.8c6.3,0,11.7,3.9,13.8,9.8
	L114.3,81.9L114.3,81.9z"/>
<path class="st0" d="M278.8,81.9l38.8,1c6.3,0.2,11.6,4.2,13.6,10.1c1.9,5.9-0.1,12.4-5,16.2l-30.8,23.6l11,37.2
	c1.8,6-0.4,12.3-5.4,16c-5.1,3.7-11.8,3.8-16.9,0.2l-31.9-22l-31.9,22c-5.2,3.6-11.8,3.5-16.9-0.2c-5.1-3.7-7.2-10-5.4-16l11-37.2
	L178,109.2c-4.9-3.8-6.9-10.2-5-16.2c1.9-6,7.3-10,13.6-10.1l38.8-1l12.9-36.6c2.1-5.9,7.5-9.8,13.8-9.8c6.3,0,11.7,3.9,13.8,9.8
	L278.8,81.9L278.8,81.9z"/>
<path class="st0" d="M443.2,81.9l38.8,1c6.3,0.2,11.6,4.2,13.6,10.1c1.9,5.9-0.1,12.4-5,16.2l-30.8,23.6l11,37.2
	c1.8,6-0.4,12.3-5.4,16c-5.1,3.7-11.8,3.8-16.9,0.2l-31.9-22l-31.9,22c-5.2,3.6-11.8,3.5-16.9-0.2c-5.1-3.7-7.2-10-5.4-16l11-37.2
	l-30.8-23.6c-4.9-3.8-6.9-10.2-5-16.2c1.9-6,7.3-10,13.6-10.1l38.8-1l12.9-36.6c2.1-5.9,7.5-9.8,13.8-9.8c6.3,0,11.7,3.9,13.8,9.8
	L443.2,81.9L443.2,81.9z"/>
<path class="st0" d="M607.7,81.9l38.8,1c6.3,0.2,11.6,4.2,13.6,10.1c1.9,5.9-0.1,12.4-5,16.2l-30.8,23.6l11,37.2
	c1.8,6-0.4,12.3-5.4,16c-5.1,3.7-11.8,3.8-16.9,0.2l-31.9-22l-31.9,22c-5.2,3.6-11.8,3.5-16.9-0.2c-5.1-3.7-7.2-10-5.4-16l11-37.2
	l-30.8-23.6c-4.9-3.8-6.9-10.2-5-16.2c1.9-6,7.3-10,13.6-10.1l38.8-1l12.9-36.6c2.1-5.9,7.5-9.8,13.8-9.8c6.3,0,11.7,3.9,13.8,9.8
	L607.7,81.9L607.7,81.9z"/>
<path class="st0" d="M772.2,81.9l38.8,1c6.3,0.2,11.6,4.2,13.6,10.1c1.9,5.9-0.1,12.4-5,16.2l-30.8,23.6l11,37.2
	c1.8,6-0.4,12.3-5.4,16c-5.1,3.7-11.8,3.8-16.9,0.2l-31.9-22l-31.9,22c-5.2,3.6-11.8,3.5-16.9-0.2c-5.1-3.7-7.2-10-5.4-16l11-37.2
	l-30.8-23.6c-4.9-3.8-6.9-10.2-5-16.2c1.9-6,7.3-10,13.6-10.1l38.8-1l12.9-36.6c2.1-5.9,7.5-9.8,13.8-9.8c6.3,0,11.7,3.9,13.8,9.8
	L772.2,81.9L772.2,81.9z"/>
</svg>
