<?xml version="1.0" encoding="utf-8"?>
<!-- Generator: Adobe Illustrator 25.3.1, SVG Export Plug-In . SVG Version: 6.00 Build 0)  -->
<svg version="1.1" id="Layer_1" xmlns="http://www.w3.org/2000/svg" xmlns:xlink="http://www.w3.org/1999/xlink" x="0px" y="0px"
	 viewBox="0 0 420 420" style="enable-background:new 0 0 420 420;" xml:space="preserve">
<style type="text/css">
	.st0{display:none;}
	.st1{display:inline;fill:#595CA9;}
	.st2{display:inline;}
	.st3{fill:#595CA9;}
	.st4{fill:#FFFFFF;}
</style>
<g class="st0">
	<path class="st1" d="M219.1,302.2c-1.7,0-3.1-1.4-3.1-3.1V291c0-1.2-1-2.1-2.1-2.1h-8.2c-1.2,0-2.1,1-2.1,2.1v8.2
		c0,1.7-1.4,3.1-3.1,3.1s-3.1-1.4-3.1-3.1V291c0-4.6,3.7-8.3,8.3-8.3h8.2c4.6,0,8.3,3.7,8.3,8.3v8.2
		C222.2,300.8,220.8,302.2,219.1,302.2L219.1,302.2z"/>
	<g class="st2">
		<path class="st3" d="M239.3,190.1c-1-1.4-2.9-1.6-4.3-0.6c-1.4,1-1.6,2.9-0.6,4.3l15.2,20.6c1.7,2.3,1.6,5.7-0.3,7.8l-16.4,18.7
			h-46.2l-16.4-18.7c-1.9-2.1-2-5.6-0.3-7.8l30.2-40.8v23.3c-3.8,2.9-6.1,7.5-6.1,12.4c0,8.6,7,15.6,15.6,15.6
			c8.6,0,15.6-7,15.6-15.6c0-4.7-2.1-9.1-5.7-12V174l6.7,9.1c1,1.4,2.9,1.6,4.3,0.6c1.4-1,1.6-2.9,0.6-4.3l-13.2-17.8
			c-2.1-2.8-5.2-4.4-8.5-4.4c-3.3,0-6.4,1.6-8.5,4.4l-36.3,49c-3.4,4.6-3.1,11.3,0.6,15.5l13.7,15.6c-3.4,1.6-5.8,5.1-5.8,9.1v14.6
			c0,4.5,3,8.3,7,9.6l0.8,24.2c0.1,1.7,1.4,3,3.1,3c0,0,0.1,0,0.1,0c1.7-0.1,3-1.5,3-3.2l-0.8-23.5h46.5l-0.8,23.5
			c-0.1,1.7,1.3,3.1,3,3.2c0,0,0.1,0,0.1,0c1.6,0,3-1.3,3.1-3l0.8-24.3c3.9-1.4,6.6-5.1,6.6-9.4v-14.6c0-4-2.4-7.5-5.8-9.1
			l13.7-15.6c3.7-4.3,4-10.9,0.6-15.5L239.3,190.1z M209.8,163.4c1.4,0,2.6,0.7,3.5,1.9l0.3,0.4v32.9c0,1,0.5,2,1.4,2.6
			c2.7,1.8,4.3,4.7,4.3,7.9c0,5.2-4.3,9.5-9.5,9.5s-9.5-4.3-9.5-9.5c0-3.4,1.7-6.4,4.6-8.1c0.9-0.6,1.5-1.6,1.5-2.6v-33.2
			C207.3,164.1,208.5,163.4,209.8,163.4L209.8,163.4z M239.9,265.5c0,2.1-1.7,3.9-3.9,3.9h-52.5c-2.1,0-3.9-1.7-3.9-3.9v-14.6
			c0-2.1,1.7-3.9,3.9-3.9H236c2.1,0,3.9,1.7,3.9,3.9V265.5z"/>
		<path class="st3" d="M148.8,191c0.4-9.7,3.1-19.2,7.9-27.7c0.8-1.5,0.3-3.3-1.2-4.2c-1.5-0.8-3.3-0.3-4.2,1.2
			c-5.3,9.3-8.3,19.9-8.7,30.7c-5.3,1.3-9.2,6.2-9.2,11.9c0,6.7,5.5,12.2,12.2,12.2s12.2-5.5,12.2-12.2
			C157.9,197.2,154,192.4,148.8,191L148.8,191z M145.6,209c-3.4,0-6.1-2.7-6.1-6.1s2.7-6.1,6.1-6.1s6.1,2.7,6.1,6.1
			S149,209,145.6,209z"/>
		<path class="st3" d="M307.7,117.8h-9.9c-3.6,0-6.5,2.9-6.5,6.5v1.9h-69.9v-1.9c0-3.6-2.9-6.5-6.5-6.5h-9.9c-3.6,0-6.5,2.9-6.5,6.5
			v1.9h-69.9v-1.9c0-3.6-2.9-6.5-6.5-6.5h-9.9c-3.6,0-6.5,2.9-6.5,6.5v9.9c0,3.6,2.9,6.5,6.5,6.5h9.9c3.6,0,6.5-2.9,6.5-6.5v-1.9
			h53.2c-8.5,3.9-16.2,9.6-22.5,16.8c-1.1,1.3-1,3.2,0.3,4.3c0.6,0.5,1.3,0.8,2,0.8c0.9,0,1.7-0.4,2.3-1
			c9.1-10.3,21.3-17.2,34.6-19.7v0.8c0,3.6,2.9,6.5,6.5,6.5h9.9c3.6,0,6.5-2.9,6.5-6.5v-0.8c27.8,5.2,48.7,29.3,49.8,57.7
			c-5.2,1.4-9.1,6.2-9.1,11.8c0,6.7,5.5,12.2,12.2,12.2c6.7,0,12.2-5.5,12.2-12.2c0-5.7-3.9-10.5-9.2-11.9
			c-1-25.8-16.7-48.3-39.3-58.7h53.2v1.9c0,3.6,2.9,6.5,6.5,6.5h9.9c3.6,0,6.5-2.9,6.5-6.5v-9.9
			C314.2,120.7,311.3,117.8,307.7,117.8L307.7,117.8z M122.5,134.1c0,0.2-0.2,0.4-0.4,0.4h-9.9c-0.2,0-0.4-0.2-0.4-0.4v-9.9
			c0-0.2,0.2-0.4,0.4-0.4h9.9c0.2,0,0.4,0.2,0.4,0.4V134.1z M280.5,202.9c0,3.4-2.7,6.1-6.1,6.1s-6.1-2.7-6.1-6.1s2.7-6.1,6.1-6.1
			S280.5,199.5,280.5,202.9z M215.3,134.1c0,0.2-0.2,0.4-0.4,0.4h-9.9c-0.2,0-0.4-0.2-0.4-0.4v-9.9c0-0.2,0.2-0.4,0.4-0.4h9.9
			c0.2,0,0.4,0.2,0.4,0.4V134.1z M308.1,134.1c0,0.2-0.2,0.4-0.4,0.4h-9.9c-0.2,0-0.4-0.2-0.4-0.4v-9.9c0-0.2,0.2-0.4,0.4-0.4h9.9
			c0.2,0,0.4,0.2,0.4,0.4V134.1z"/>
	</g>
</g>
<g>
	<g>
		<path class="st4" d="M304.6,275.7h-9.8c0.8-1.5,1.2-3.2,1.2-4.9l0-80.1c0-1.6-1.3-3-3-3c-1.6,0-3,1.3-3,3l0,80.1
			c0,2.7-2.2,4.9-4.9,4.9l-153.5,0c-2.7,0-4.9-2.2-4.9-4.9l0-102.3c0-2.7,2.2-4.9,4.9-4.9l78.3,0c-1,1.8-1.2,4-0.4,5.9l-10.5,0
			c0,0,0,0,0,0h-5.3c0,0,0,0,0,0l-58.2,0c-1.6,0-3,1.3-3,3l0,62.3c0,1.6,1.3,3,3,3c1.6,0,3-1.3,3-3l0-59.4l48.5,0
			c-0.4,1.6-0.9,3.6-1.1,5.1c0,0.2-0.2,0.5-0.4,0.6l-4.9,2.8c-0.2,0.1-0.5,0.2-0.7,0.1c-1.7-0.7-4.1-1.4-5.8-1.9
			c-3-0.8-6.1,0.5-7.7,3.1l-2.7,4.6c-1.5,2.7-1.1,6.1,1.1,8.2c1.3,1.2,3.1,3,4.5,4.1c0.2,0.2,0.3,0.4,0.3,0.7v5.7
			c0,0.3-0.1,0.5-0.3,0.7c-1.4,1.1-3.2,2.8-4.5,4.1c-2.2,2.2-2.7,5.5-1.1,8.2l2.7,4.6c1.5,2.7,4.7,4,7.7,3.1
			c1.7-0.5,4.1-1.2,5.8-1.9c0.2-0.1,0.5-0.1,0.7,0.1l4.9,2.8c0.2,0.1,0.4,0.4,0.4,0.6c0.3,1.8,0.8,4.2,1.3,5.9
			c0.8,3,3.5,5.1,6.6,5.1h5.3c3.1,0,5.8-2.1,6.6-5.1c0.4-1.7,1-4.1,1.3-5.9c0-0.2,0.2-0.5,0.4-0.6l4.9-2.8c0.2-0.1,0.5-0.2,0.7-0.1
			c1.7,0.7,4.1,1.4,5.8,1.9c3,0.8,6.1-0.5,7.7-3.1l2.7-4.6c1.5-2.7,1.1-6.1-1.1-8.2c-1.3-1.2-3.1-3-4.5-4.1
			c-0.2-0.2-0.3-0.4-0.3-0.7v-5.7c0-0.3,0.1-0.5,0.3-0.7c1.4-1.1,3.2-2.8,4.5-4.1c2.2-2.2,2.7-5.5,1.1-8.2l-2.7-4.6
			c-1.5-2.7-4.7-4-7.7-3.1c-1.7,0.5-4.1,1.2-5.8,1.9c-0.2,0.1-0.5,0.1-0.7-0.1l-4.9-2.8c-0.2-0.1-0.4-0.4-0.4-0.6
			c-0.2-1.5-0.7-3.5-1.1-5.1l7.1,0c1.6,2.3,4.6,3.4,7.4,2.7c1.7-0.5,4.1-1.2,5.8-1.9c0.2-0.1,0.5-0.1,0.7,0.1l4.9,2.8
			c0.2,0.1,0.4,0.4,0.4,0.6c0.3,1.8,0.8,4.2,1.3,5.9c0.8,3,3.5,5.1,6.6,5.1h5.3c3.1,0,5.8-2.1,6.6-5.1c0.4-1.7,1-4.1,1.3-5.9
			c0-0.2,0.2-0.5,0.4-0.6l4.9-2.8c0.2-0.1,0.5-0.2,0.7-0.1c1.7,0.7,4.1,1.4,5.8,1.9c2.8,0.8,5.7-0.3,7.4-2.7h5.7l0,88.5l-139.7,0
			l0-16.4c0-1.6-1.3-3-3-3c-1.6,0-3,1.3-3,3l0,19.4c0,1.6,1.3,3,3,3l145.6,0c0.8,0,1.5-0.3,2.1-0.9c0.6-0.6,0.9-1.3,0.9-2.1l0-94.4
			c0-1.6-1.3-3-3-3h-5.3c0.8-1.9,0.6-4.1-0.4-5.9h9.6c2.7,0,4.9,2.2,4.9,4.9l0,9.7c0,1.6,1.3,3,3,3c1.6,0,3-1.3,3-3l0-9.7
			c0-6-4.9-10.8-10.8-10.8h-15.5c0-0.1-0.1-0.2-0.1-0.3v-5.7c0-0.3,0.1-0.5,0.3-0.7c1.4-1.1,3.2-2.8,4.5-4.1
			c2.2-2.2,2.7-5.5,1.1-8.2l-2.7-4.6c-1.5-2.7-4.7-4-7.7-3.1c-1.7,0.5-4.1,1.2-5.8,1.9c-0.2,0.1-0.5,0.1-0.7-0.1l-4.9-2.8
			c-0.2-0.1-0.4-0.4-0.4-0.6c-0.3-1.8-0.8-4.2-1.3-5.9c-0.8-3-3.5-5.1-6.6-5.1h-5.3c-3.1,0-5.8,2.1-6.6,5.1c-0.4,1.7-1,4.1-1.3,5.9
			c0,0.2-0.2,0.5-0.4,0.6l-4.9,2.8c-0.2,0.1-0.5,0.2-0.7,0.1c-1.7-0.7-4.1-1.4-5.8-1.9c-3-0.8-6.1,0.5-7.7,3.1l-2.7,4.6
			c-1.5,2.7-1.1,6.1,1.1,8.2c1.3,1.2,3.1,3,4.5,4.1c0.2,0.2,0.3,0.4,0.3,0.7v5.7c0,0.1,0,0.2-0.1,0.3l-84.2,0
			c-6,0-10.8,4.9-10.8,10.8l0,102.3c0,1.8,0.4,3.4,1.2,4.9h-9.8c-2.5,0-4.5,2-4.5,4.5v7.9c0,7.3,5.9,13.2,13.2,13.2h137.9
			c1.6,0,3-1.3,3-3s-1.3-3-3-3H120.9c-4,0-7.3-3.3-7.3-7.3v-6.5h73.8v1.8c0,4.2,3.4,7.7,7.7,7.7h26.8c4.2,0,7.7-3.4,7.7-7.7v-1.8
			h73.8v6.5c0,4-3.3,7.3-7.3,7.3h-24.5c-1.6,0-3,1.3-3,3s1.3,3,3,3H296c7.3,0,13.2-5.9,13.2-13.2v-7.9
			C309.2,277.7,307.1,275.7,304.6,275.7L304.6,275.7z M200,176c0.6,2.2,1,4.1,1.1,5.3c0.3,2.1,1.5,3.9,3.3,4.9l4.9,2.8
			c1.8,1,4,1.2,5.9,0.4c1.1-0.4,2.9-1,5.2-1.6c0.4-0.1,0.8,0.1,1,0.4l2.7,4.6c0.2,0.3,0.1,0.8-0.1,1c-1.6,1.6-3.1,2.9-4,3.6
			c-1.6,1.3-2.6,3.2-2.6,5.3v5.7c0,2.1,0.9,4,2.6,5.3c0.9,0.7,2.4,2,4,3.6c0.3,0.3,0.3,0.7,0.1,1l-2.7,4.6c-0.2,0.3-0.6,0.5-1,0.4
			c-2.2-0.6-4-1.2-5.2-1.6c-1.9-0.8-4.1-0.6-5.9,0.4l-4.9,2.8c-1.8,1-3,2.8-3.3,4.9v0c-0.2,1.2-0.6,3-1.1,5.3
			c-0.1,0.4-0.4,0.7-0.8,0.7h-5.3c-0.4,0-0.7-0.3-0.8-0.7c-0.6-2.2-1-4.1-1.1-5.3c-0.3-2.1-1.5-3.9-3.3-4.9l-4.9-2.8
			c-1.1-0.6-2.2-0.9-3.4-0.9c-0.9,0-1.7,0.2-2.5,0.5c-1.1,0.4-2.9,1-5.2,1.6c-0.4,0.1-0.8-0.1-1-0.4l-2.7-4.6
			c-0.2-0.3-0.1-0.8,0.1-1c1.6-1.6,3.1-2.9,4-3.6c1.6-1.3,2.6-3.2,2.6-5.3v-5.7c0-2.1-0.9-4-2.6-5.3c-0.9-0.7-2.4-2-4-3.6
			c-0.3-0.3-0.3-0.7-0.1-1l2.7-4.6c0.2-0.3,0.6-0.5,1-0.4c2.2,0.6,4,1.2,5.2,1.6c1.9,0.8,4.1,0.6,5.9-0.4l4.9-2.8
			c1.8-1,3-2.8,3.3-4.9c0.2-1.2,0.6-3,1.1-5.3c0.1-0.4,0.4-0.7,0.8-0.7l5.4,0C199.6,175.4,199.9,175.6,200,176L200,176z
			 M215.3,142.7c-0.3-0.3-0.3-0.7-0.1-1l2.7-4.6c0.2-0.3,0.6-0.5,1-0.4c2.2,0.6,4.1,1.2,5.2,1.6c1.9,0.8,4.1,0.6,5.9-0.4l4.9-2.8
			c1.8-1,3-2.8,3.3-4.9c0.2-1.2,0.6-3,1.1-5.3c0.1-0.4,0.4-0.7,0.8-0.7h5.3c0.4,0,0.7,0.3,0.8,0.7c0.6,2.2,1,4.1,1.1,5.3
			c0.3,2.1,1.5,3.9,3.3,4.9l4.9,2.8c1.8,1,4,1.2,5.9,0.4c1.1-0.4,2.9-1,5.2-1.6c0.4-0.1,0.8,0.1,1,0.4l2.7,4.6
			c0.2,0.3,0.1,0.8-0.1,1c-1.6,1.6-3.1,2.9-4,3.6c-1.6,1.3-2.6,3.2-2.6,5.3v5.7c0,2.1,0.9,4,2.6,5.3c0.9,0.7,2.4,2,4,3.6
			c0.3,0.3,0.3,0.7,0.1,1l-2.7,4.6c-0.2,0.3-0.6,0.5-1,0.4c-2.2-0.6-4-1.2-5.2-1.6c-1.9-0.8-4.1-0.6-5.9,0.4l-4.9,2.8
			c-1.8,1-3,2.8-3.3,4.9v0c-0.2,1.2-0.6,3-1.1,5.3c-0.1,0.4-0.4,0.7-0.8,0.7h-5.3c-0.4,0-0.7-0.3-0.8-0.7c-0.6-2.2-1-4.1-1.1-5.3
			c-0.3-2.1-1.5-3.9-3.3-4.9l-4.9-2.8c-1.1-0.6-2.2-0.9-3.4-0.9c-0.9,0-1.7,0.2-2.5,0.5c-1.1,0.4-2.9,1-5.2,1.6
			c-0.4,0.1-0.8-0.1-1-0.4l-0.5-0.9c0,0,0-0.1-0.1-0.1l-2.1-3.6c-0.2-0.3-0.1-0.8,0.1-1c1.6-1.6,3.1-2.9,4-3.6
			c1.6-1.3,2.6-3.2,2.6-5.3v-5.7c0-2.1-0.9-4-2.6-5.3C218.3,145.6,216.9,144.3,215.3,142.7L215.3,142.7z M223.6,283.4
			c0,1-0.8,1.8-1.8,1.8H195c-1,0-1.8-0.8-1.8-1.8v-1.8h30.3V283.4z"/>
		<path class="st4" d="M242.8,170.5c8.9,0,16.1-7.2,16.1-16.1c0-8.9-7.2-16.1-16.1-16.1s-16.1,7.2-16.1,16.1
			C226.7,163.3,233.9,170.5,242.8,170.5z M238.2,163.5h9.2c-1.4,0.7-2.9,1.1-4.6,1.1C241.1,164.6,239.5,164.2,238.2,163.5
			L238.2,163.5z M242.8,144.3c5.6,0,10.2,4.6,10.2,10.2c0,1.1-0.2,2.2-0.5,3.2h-19.4c-0.3-1-0.5-2.1-0.5-3.2
			C232.6,148.9,237.1,144.3,242.8,144.3L242.8,144.3z"/>
		<path class="st4" d="M180.4,205.6c0,8.9,7.2,16.1,16.1,16.1s16.1-7.2,16.1-16.1c0-8.9-7.2-16.1-16.1-16.1S180.4,196.8,180.4,205.6
			L180.4,205.6z M206.7,205.6c0,5.6-4.6,10.2-10.2,10.2s-10.2-4.6-10.2-10.2s4.6-10.2,10.2-10.2S206.7,200,206.7,205.6L206.7,205.6z
			"/>
	</g>
</g>
</svg>
