<?xml version="1.0" encoding="utf-8"?>
<!-- Generator: Adobe Illustrator 25.3.1, SVG Export Plug-In . SVG Version: 6.00 Build 0)  -->
<svg version="1.1" id="Layer_1" xmlns="http://www.w3.org/2000/svg" xmlns:xlink="http://www.w3.org/1999/xlink" x="0px" y="0px"
	 viewBox="0 0 420 420" style="enable-background:new 0 0 420 420;" xml:space="preserve">
<style type="text/css">
	.st0{display:none;}
	.st1{display:inline;fill:#595CA9;}
	.st2{display:inline;}
	.st3{fill:#595CA9;}
	.st4{fill:none;}
	.st5{fill:#FFFFFF;}
</style>
<g class="st0">
	<path class="st1" d="M219.1,302.2c-1.7,0-3.1-1.4-3.1-3.1V291c0-1.2-1-2.1-2.1-2.1h-8.2c-1.2,0-2.1,1-2.1,2.1v8.2
		c0,1.7-1.4,3.1-3.1,3.1s-3.1-1.4-3.1-3.1V291c0-4.6,3.7-8.3,8.3-8.3h8.2c4.6,0,8.3,3.7,8.3,8.3v8.2
		C222.2,300.8,220.8,302.2,219.1,302.2L219.1,302.2z"/>
	<g class="st2">
		<path class="st3" d="M239.3,190.1c-1-1.4-2.9-1.6-4.3-0.6c-1.4,1-1.6,2.9-0.6,4.3l15.2,20.6c1.7,2.3,1.6,5.7-0.3,7.8l-16.4,18.7
			h-46.2l-16.4-18.7c-1.9-2.1-2-5.6-0.3-7.8l30.2-40.8v23.3c-3.8,2.9-6.1,7.5-6.1,12.4c0,8.6,7,15.6,15.6,15.6s15.6-7,15.6-15.6
			c0-4.7-2.1-9.1-5.7-12V174l6.7,9.1c1,1.4,2.9,1.6,4.3,0.6c1.4-1,1.6-2.9,0.6-4.3L218,161.6c-2.1-2.8-5.2-4.4-8.5-4.4
			s-6.4,1.6-8.5,4.4l-36.3,49c-3.4,4.6-3.1,11.3,0.6,15.5l13.7,15.6c-3.4,1.6-5.8,5.1-5.8,9.1v14.6c0,4.5,3,8.3,7,9.6l0.8,24.2
			c0.1,1.7,1.4,3,3.1,3h0.1c1.7-0.1,3-1.5,3-3.2l-0.8-23.5h46.5l-0.8,23.5c-0.1,1.7,1.3,3.1,3,3.2h0.1c1.6,0,3-1.3,3.1-3l0.8-24.3
			c3.9-1.4,6.6-5.1,6.6-9.4v-14.6c0-4-2.4-7.5-5.8-9.1l13.7-15.6c3.7-4.3,4-10.9,0.6-15.5L239.3,190.1z M209.8,163.4
			c1.4,0,2.6,0.7,3.5,1.9l0.3,0.4v32.9c0,1,0.5,2,1.4,2.6c2.7,1.8,4.3,4.7,4.3,7.9c0,5.2-4.3,9.5-9.5,9.5s-9.5-4.3-9.5-9.5
			c0-3.4,1.7-6.4,4.6-8.1c0.9-0.6,1.5-1.6,1.5-2.6v-33.2C207.3,164.1,208.5,163.4,209.8,163.4L209.8,163.4z M239.9,265.5
			c0,2.1-1.7,3.9-3.9,3.9h-52.5c-2.1,0-3.9-1.7-3.9-3.9v-14.6c0-2.1,1.7-3.9,3.9-3.9H236c2.1,0,3.9,1.7,3.9,3.9V265.5z"/>
		<path class="st3" d="M148.8,191c0.4-9.7,3.1-19.2,7.9-27.7c0.8-1.5,0.3-3.3-1.2-4.2c-1.5-0.8-3.3-0.3-4.2,1.2
			c-5.3,9.3-8.3,19.9-8.7,30.7c-5.3,1.3-9.2,6.2-9.2,11.9c0,6.7,5.5,12.2,12.2,12.2s12.2-5.5,12.2-12.2
			C157.9,197.2,154,192.4,148.8,191L148.8,191z M145.6,209c-3.4,0-6.1-2.7-6.1-6.1s2.7-6.1,6.1-6.1s6.1,2.7,6.1,6.1
			S149,209,145.6,209z"/>
		<path class="st3" d="M307.7,117.8h-9.9c-3.6,0-6.5,2.9-6.5,6.5v1.9h-69.9v-1.9c0-3.6-2.9-6.5-6.5-6.5H205c-3.6,0-6.5,2.9-6.5,6.5
			v1.9h-69.9v-1.9c0-3.6-2.9-6.5-6.5-6.5h-9.9c-3.6,0-6.5,2.9-6.5,6.5v9.9c0,3.6,2.9,6.5,6.5,6.5h9.9c3.6,0,6.5-2.9,6.5-6.5v-1.9
			h53.2c-8.5,3.9-16.2,9.6-22.5,16.8c-1.1,1.3-1,3.2,0.3,4.3c0.6,0.5,1.3,0.8,2,0.8c0.9,0,1.7-0.4,2.3-1
			c9.1-10.3,21.3-17.2,34.6-19.7v0.8c0,3.6,2.9,6.5,6.5,6.5h9.9c3.6,0,6.5-2.9,6.5-6.5v-0.8c27.8,5.2,48.7,29.3,49.8,57.7
			c-5.2,1.4-9.1,6.2-9.1,11.8c0,6.7,5.5,12.2,12.2,12.2s12.2-5.5,12.2-12.2c0-5.7-3.9-10.5-9.2-11.9c-1-25.8-16.7-48.3-39.3-58.7
			h53.2v1.9c0,3.6,2.9,6.5,6.5,6.5h9.9c3.6,0,6.5-2.9,6.5-6.5v-9.9C314.2,120.7,311.3,117.8,307.7,117.8L307.7,117.8z M122.5,134.1
			c0,0.2-0.2,0.4-0.4,0.4h-9.9c-0.2,0-0.4-0.2-0.4-0.4v-9.9c0-0.2,0.2-0.4,0.4-0.4h9.9c0.2,0,0.4,0.2,0.4,0.4V134.1z M280.5,202.9
			c0,3.4-2.7,6.1-6.1,6.1s-6.1-2.7-6.1-6.1s2.7-6.1,6.1-6.1S280.5,199.5,280.5,202.9z M215.3,134.1c0,0.2-0.2,0.4-0.4,0.4H205
			c-0.2,0-0.4-0.2-0.4-0.4v-9.9c0-0.2,0.2-0.4,0.4-0.4h9.9c0.2,0,0.4,0.2,0.4,0.4L215.3,134.1L215.3,134.1z M308.1,134.1
			c0,0.2-0.2,0.4-0.4,0.4h-9.9c-0.2,0-0.4-0.2-0.4-0.4v-9.9c0-0.2,0.2-0.4,0.4-0.4h9.9c0.2,0,0.4,0.2,0.4,0.4V134.1z"/>
	</g>
</g>
<g>
	<g id="_x31_2">
		<path class="st4" d="M258.8,203.7l-39,52.9l0.6,39.5l-20.7,14.7l0.6-54.2l-39-52.9"/>
		<path class="st5" d="M267.1,197.8c0-4.4-3.6-8-8-8h-98.2c-4.4,0-8,3.6-8,8c0,4.1,3.2,7.5,7.2,7.9l38.1,51.6l-0.6,53.5
			c0,0.8,0.4,1.5,1.1,1.9c0.3,0.2,0.6,0.2,1,0.2c0.4,0,0.8-0.1,1.2-0.4l20.7-14.7c0.6-0.4,0.9-1,0.9-1.7l-0.6-38.8l38.1-51.6
			C263.9,205.3,267.1,202,267.1,197.8z M157.1,197.8c0-2.1,1.7-3.8,3.8-3.8h98.2c2.1,0,3.8,1.7,3.8,3.8c0,2.1-1.7,3.8-3.8,3.8h-98.2
			C158.8,201.7,157.1,199.9,157.1,197.8z M218.1,255.4c-0.3,0.4-0.4,0.8-0.4,1.3l0.6,38.4l-16.5,11.7l0.5-50.1
			c0-0.5-0.1-0.9-0.4-1.3l-36.6-49.6h89.4L218.1,255.4z"/>
	</g>
	<g id="outline">
		<rect x="216.4" y="179" class="st5" width="2.9" height="14.4"/>
		<rect x="199.1" y="179" class="st5" width="2.9" height="14.4"/>
		<path class="st5" d="M209.2,147.3c-4,0-7.2,3.2-7.2,7.2v2.9c0,4,3.2,7.2,7.2,7.2c4,0,7.2-3.2,7.2-7.2v-2.9
			C216.4,150.6,213.2,147.3,209.2,147.3z M213.5,157.4c0,2.4-1.9,4.3-4.3,4.3c-2.4,0-4.3-1.9-4.3-4.3v-2.9c0-2.4,1.9-4.3,4.3-4.3
			c2.4,0,4.3,1.9,4.3,4.3V157.4z"/>
		<path class="st5" d="M169,180.4c0-4,3.2-7.2,7.2-7.2h5.8v20.1h2.9v-20.1h5.8c0.8,0,1.5,0.1,2.2,0.4c-0.5,1.2-0.8,2.6-0.8,3.9v15.8
			h2.9v-15.8c0-4,3.2-7.2,7.2-7.2h5.8v23h2.9v-23h5.8c4,0,7.2,3.2,7.2,7.2v15.8h2.9v-15.8c0-1.4-0.3-2.7-0.8-3.9
			c0.7-0.2,1.5-0.4,2.2-0.4h5.8v20.1h2.9v-20.1h5.8c4,0,7.2,3.2,7.2,7.2v12.9h2.9v-12.9c0-5.6-4.5-10.1-10.1-10.1h-14.4
			c-1.3,0-2.6,0.3-3.8,0.7c-1.9-2.3-4.7-3.6-7.7-3.6H202c-3,0-5.8,1.3-7.7,3.6c-1.2-0.5-2.5-0.7-3.8-0.7h-14.4
			c-5.6,0-10.1,4.5-10.1,10.1v12.9h2.9V180.4z"/>
		<rect x="173.3" y="181.8" class="st5" width="2.9" height="11.5"/>
		<path class="st5" d="M176.1,157.4v2.9c0,4,3.2,7.2,7.2,7.2c4,0,7.2-3.2,7.2-7.2v-2.9c0-4-3.2-7.2-7.2-7.2
			C179.4,150.2,176.1,153.4,176.1,157.4z M187.6,157.4v2.9c0,2.4-1.9,4.3-4.3,4.3c-2.4,0-4.3-1.9-4.3-4.3v-2.9
			c0-2.4,1.9-4.3,4.3-4.3C185.7,153.1,187.6,155,187.6,157.4z"/>
		<rect x="242.3" y="181.8" class="st5" width="2.9" height="11.5"/>
		<path class="st5" d="M235.1,167.5c4,0,7.2-3.2,7.2-7.2v-2.9c0-4-3.2-7.2-7.2-7.2c-4,0-7.2,3.2-7.2,7.2v2.9
			C227.9,164.2,231.1,167.5,235.1,167.5z M230.8,157.4c0-2.4,1.9-4.3,4.3-4.3c2.4,0,4.3,1.9,4.3,4.3v2.9c0,2.4-1.9,4.3-4.3,4.3
			c-2.4,0-4.3-1.9-4.3-4.3V157.4z"/>
		<path class="st5" d="M173.3,154.5H169v-8.6h8.9l0.2-1.2c0.8-4.5,2.6-8.9,5.2-12.6l0.7-1l-6.3-6.3l6.1-6.1l6.3,6.3l1-0.7
			c3.8-2.7,8.1-4.4,12.6-5.2l1.2-0.2V110h8.6v8.9l1.2,0.2c4.5,0.8,8.9,2.6,12.6,5.2l1,0.7l6.3-6.3l6.1,6.1l-6.3,6.3l0.7,1
			c2.7,3.8,4.4,8.1,5.2,12.6l0.2,1.2h8.9v8.6h-4.3v2.9h7.2V143H243c-0.9-4.1-2.5-8.1-4.8-11.6l6.6-6.6l-10.2-10.2l-6.6,6.6
			c-3.5-2.3-7.5-3.9-11.6-4.8v-9.4H202v9.4c-4.1,0.9-8.1,2.5-11.6,4.8l-6.6-6.6l-10.2,10.2l6.6,6.6c-2.3,3.5-3.9,7.5-4.8,11.6h-9.4
			v14.4h7.2V154.5z"/>
		<path class="st5" d="M220.7,147.1c-0.9-6.3-6.8-10.7-13.1-9.8c-5.1,0.7-9.1,4.7-9.8,9.8l2.8,0.4c0.7-4.7,5.1-8,9.8-7.3
			c3.8,0.5,6.8,3.5,7.3,7.3L220.7,147.1z"/>
		<path class="st5" d="M227.7,147.5l2.8-0.4c-1.7-11.8-12.6-20-24.4-18.3c-9.5,1.4-17,8.8-18.3,18.3l2.8,0.4
			c1.5-10.2,10.9-17.3,21.2-15.8C220.1,132.9,226.5,139.3,227.7,147.5L227.7,147.5z"/>
	</g>
</g>
</svg>
