<?xml version="1.0" encoding="utf-8"?>
<!-- Generator: Adobe Illustrator 25.3.1, SVG Export Plug-In . SVG Version: 6.00 Build 0)  -->
<svg version="1.1" id="Layer_1" xmlns="http://www.w3.org/2000/svg" xmlns:xlink="http://www.w3.org/1999/xlink" x="0px" y="0px"
	 viewBox="0 0 420 420" style="enable-background:new 0 0 420 420;" xml:space="preserve">
<style type="text/css">
	.st0{display:none;}
	.st1{display:inline;fill:#595CA9;}
	.st2{display:inline;}
	.st3{fill:#595CA9;}
	.st4{fill:#FFFFFF;}
</style>
<g class="st0">
	<path class="st1" d="M219.1,302.2c-1.7,0-3.1-1.4-3.1-3.1V291c0-1.2-1-2.1-2.1-2.1h-8.2c-1.2,0-2.1,1-2.1,2.1v8.2
		c0,1.7-1.4,3.1-3.1,3.1s-3.1-1.4-3.1-3.1V291c0-4.6,3.7-8.3,8.3-8.3h8.2c4.6,0,8.3,3.7,8.3,8.3v8.2
		C222.2,300.8,220.8,302.2,219.1,302.2L219.1,302.2z"/>
	<g class="st2">
		<path class="st3" d="M239.3,190.1c-1-1.4-2.9-1.6-4.3-0.6c-1.4,1-1.6,2.9-0.6,4.3l15.2,20.6c1.7,2.3,1.6,5.7-0.3,7.8l-16.4,18.7
			h-46.2l-16.4-18.7c-1.9-2.1-2-5.6-0.3-7.8l30.2-40.8v23.3c-3.8,2.9-6.1,7.5-6.1,12.4c0,8.6,7,15.6,15.6,15.6s15.6-7,15.6-15.6
			c0-4.7-2.1-9.1-5.7-12V174l6.7,9.1c1,1.4,2.9,1.6,4.3,0.6c1.4-1,1.6-2.9,0.6-4.3L218,161.6c-2.1-2.8-5.2-4.4-8.5-4.4
			s-6.4,1.6-8.5,4.4l-36.3,49c-3.4,4.6-3.1,11.3,0.6,15.5l13.7,15.6c-3.4,1.6-5.8,5.1-5.8,9.1v14.6c0,4.5,3,8.3,7,9.6l0.8,24.2
			c0.1,1.7,1.4,3,3.1,3h0.1c1.7-0.1,3-1.5,3-3.2l-0.8-23.5h46.5l-0.8,23.5c-0.1,1.7,1.3,3.1,3,3.2h0.1c1.6,0,3-1.3,3.1-3l0.8-24.3
			c3.9-1.4,6.6-5.1,6.6-9.4v-14.6c0-4-2.4-7.5-5.8-9.1l13.7-15.6c3.7-4.3,4-10.9,0.6-15.5L239.3,190.1z M209.8,163.4
			c1.4,0,2.6,0.7,3.5,1.9l0.3,0.4v32.9c0,1,0.5,2,1.4,2.6c2.7,1.8,4.3,4.7,4.3,7.9c0,5.2-4.3,9.5-9.5,9.5s-9.5-4.3-9.5-9.5
			c0-3.4,1.7-6.4,4.6-8.1c0.9-0.6,1.5-1.6,1.5-2.6v-33.2C207.3,164.1,208.5,163.4,209.8,163.4L209.8,163.4z M239.9,265.5
			c0,2.1-1.7,3.9-3.9,3.9h-52.5c-2.1,0-3.9-1.7-3.9-3.9v-14.6c0-2.1,1.7-3.9,3.9-3.9H236c2.1,0,3.9,1.7,3.9,3.9V265.5z"/>
		<path class="st3" d="M148.8,191c0.4-9.7,3.1-19.2,7.9-27.7c0.8-1.5,0.3-3.3-1.2-4.2c-1.5-0.8-3.3-0.3-4.2,1.2
			c-5.3,9.3-8.3,19.9-8.7,30.7c-5.3,1.3-9.2,6.2-9.2,11.9c0,6.7,5.5,12.2,12.2,12.2s12.2-5.5,12.2-12.2
			C157.9,197.2,154,192.4,148.8,191L148.8,191z M145.6,209c-3.4,0-6.1-2.7-6.1-6.1s2.7-6.1,6.1-6.1s6.1,2.7,6.1,6.1
			S149,209,145.6,209z"/>
		<path class="st3" d="M307.7,117.8h-9.9c-3.6,0-6.5,2.9-6.5,6.5v1.9h-69.9v-1.9c0-3.6-2.9-6.5-6.5-6.5H205c-3.6,0-6.5,2.9-6.5,6.5
			v1.9h-69.9v-1.9c0-3.6-2.9-6.5-6.5-6.5h-9.9c-3.6,0-6.5,2.9-6.5,6.5v9.9c0,3.6,2.9,6.5,6.5,6.5h9.9c3.6,0,6.5-2.9,6.5-6.5v-1.9
			h53.2c-8.5,3.9-16.2,9.6-22.5,16.8c-1.1,1.3-1,3.2,0.3,4.3c0.6,0.5,1.3,0.8,2,0.8c0.9,0,1.7-0.4,2.3-1
			c9.1-10.3,21.3-17.2,34.6-19.7v0.8c0,3.6,2.9,6.5,6.5,6.5h9.9c3.6,0,6.5-2.9,6.5-6.5v-0.8c27.8,5.2,48.7,29.3,49.8,57.7
			c-5.2,1.4-9.1,6.2-9.1,11.8c0,6.7,5.5,12.2,12.2,12.2s12.2-5.5,12.2-12.2c0-5.7-3.9-10.5-9.2-11.9c-1-25.8-16.7-48.3-39.3-58.7
			h53.2v1.9c0,3.6,2.9,6.5,6.5,6.5h9.9c3.6,0,6.5-2.9,6.5-6.5v-9.9C314.2,120.7,311.3,117.8,307.7,117.8L307.7,117.8z M122.5,134.1
			c0,0.2-0.2,0.4-0.4,0.4h-9.9c-0.2,0-0.4-0.2-0.4-0.4v-9.9c0-0.2,0.2-0.4,0.4-0.4h9.9c0.2,0,0.4,0.2,0.4,0.4V134.1z M280.5,202.9
			c0,3.4-2.7,6.1-6.1,6.1s-6.1-2.7-6.1-6.1s2.7-6.1,6.1-6.1S280.5,199.5,280.5,202.9z M215.3,134.1c0,0.2-0.2,0.4-0.4,0.4H205
			c-0.2,0-0.4-0.2-0.4-0.4v-9.9c0-0.2,0.2-0.4,0.4-0.4h9.9c0.2,0,0.4,0.2,0.4,0.4L215.3,134.1L215.3,134.1z M308.1,134.1
			c0,0.2-0.2,0.4-0.4,0.4h-9.9c-0.2,0-0.4-0.2-0.4-0.4v-9.9c0-0.2,0.2-0.4,0.4-0.4h9.9c0.2,0,0.4,0.2,0.4,0.4V134.1z"/>
	</g>
</g>
<g>
	<path class="st4" d="M187,200H175c-1,0-1.9,0.8-1.9,1.9v12.1c0,1,0.8,1.9,1.9,1.9H187c1,0,1.9-0.8,1.9-1.9v-12.1
		C188.9,200.9,188,200,187,200z M185.2,212.1h-8.4v-8.4h8.4V212.1z"/>
	<path class="st4" d="M215.1,200h-12.1c-1,0-1.9,0.8-1.9,1.9v12.1c0,1,0.8,1.9,1.9,1.9h12.1c1,0,1.9-0.8,1.9-1.9v-12.1
		C217,200.9,216.2,200,215.1,200z M213.3,212.1h-8.4v-8.4h8.4V212.1z"/>
	<path class="st4" d="M242.4,200h-12.1c-1,0-1.9,0.8-1.9,1.9v12.1c0,1,0.8,1.9,1.9,1.9h12.1c1,0,1.9-0.8,1.9-1.9v-12.1
		C244.2,200.9,243.4,200,242.4,200z M240.5,212.1h-8.4v-8.4h8.4V212.1z"/>
	<path class="st4" d="M187,227.5H175c-1,0-1.9,0.8-1.9,1.9v12.1c0,1,0.8,1.9,1.9,1.9H187c1,0,1.9-0.8,1.9-1.9v-12.1
		C188.9,228.3,188,227.5,187,227.5z M185.2,239.5h-8.4v-8.4h8.4V239.5z"/>
	<path class="st4" d="M215.1,227.5h-12.1c-1,0-1.9,0.8-1.9,1.9v12.1c0,1,0.8,1.9,1.9,1.9h12.1c1,0,1.9-0.8,1.9-1.9v-12.1
		C217,228.3,216.2,227.5,215.1,227.5z M213.3,239.5h-8.4v-8.4h8.4V239.5z"/>
	<path class="st4" d="M242.4,227.5h-12.1c-1,0-1.9,0.8-1.9,1.9v12.1c0,1,0.8,1.9,1.9,1.9h12.1c1,0,1.9-0.8,1.9-1.9v-12.1
		C244.2,228.3,243.4,227.5,242.4,227.5z M240.5,239.5h-8.4v-8.4h8.4V239.5z"/>
	<path class="st4" d="M257.1,164.1h-12.2c0,0,0,0,0,0v-2.5c0-4-3.3-7.3-7.3-7.3s-7.3,3.3-7.3,7.3v2.5h-13.8v-2.5
		c0-4-3.3-7.3-7.3-7.3c-4,0-7.3,3.3-7.3,7.3v2.5h-13.8v-2.5c0-4-3.3-7.3-7.3-7.3c-4,0-7.3,3.3-7.3,7.3v2.5c0,0,0,0,0,0H161
		c-1,0-1.9,0.8-1.9,1.9v96c0,1,0.8,1.9,1.9,1.9h96c1,0,1.9-0.8,1.9-1.9v-96C258.9,165,258.1,164.1,257.1,164.1z M233.8,161.7
		c0-2,1.6-3.6,3.6-3.6s3.6,1.6,3.6,3.6v10.2c0,2-1.6,3.6-3.6,3.6s-3.6-1.6-3.6-3.6V161.7z M209,158.1c2,0,3.6,1.6,3.6,3.6v10.2
		c0,2-1.6,3.6-3.6,3.6s-3.6-1.6-3.6-3.6v-5.7c0-0.1,0-0.1,0-0.2s0-0.1,0-0.2v-4.1C205.4,159.7,207,158.1,209,158.1z M177,161.7
		c0-2,1.6-3.6,3.6-3.6c2,0,3.6,1.6,3.6,3.6v10.2c0,2-1.6,3.6-3.6,3.6c-2,0-3.6-1.6-3.6-3.6V161.7z M255.2,260.2h-92.3v-92.3h10.4
		c0,0,0,0,0,0v4.1c0,4,3.3,7.3,7.3,7.3c4,0,7.3-3.3,7.3-7.3v-4.1h13.8v4.1c0,4,3.3,7.3,7.3,7.3c4,0,7.3-3.3,7.3-7.3v-4.1h13.8v4.1
		c0,4,3.3,7.3,7.3,7.3s7.3-3.3,7.3-7.3v-4.1c0,0,0,0,0,0h10.4V260.2z"/>
</g>
</svg>
