<?xml version="1.0" encoding="utf-8"?>
<!-- Generator: Adobe Illustrator 25.3.1, SVG Export Plug-In . SVG Version: 6.00 Build 0)  -->
<svg version="1.1" id="Layer_1" xmlns="http://www.w3.org/2000/svg" xmlns:xlink="http://www.w3.org/1999/xlink" x="0px" y="0px"
	 viewBox="0 0 420 420" style="enable-background:new 0 0 420 420;" xml:space="preserve">
<style type="text/css">
	.st0{display:none;}
	.st1{display:inline;fill:#595CA9;}
	.st2{display:inline;}
	.st3{fill:#595CA9;}
	.st4{fill:#FFFFFF;}
</style>
<g class="st0">
	<path class="st1" d="M219.1,302.2c-1.7,0-3.1-1.4-3.1-3.1V291c0-1.2-1-2.1-2.1-2.1h-8.2c-1.2,0-2.1,1-2.1,2.1v8.2
		c0,1.7-1.4,3.1-3.1,3.1s-3.1-1.4-3.1-3.1V291c0-4.6,3.7-8.3,8.3-8.3h8.2c4.6,0,8.3,3.7,8.3,8.3v8.2
		C222.2,300.8,220.8,302.2,219.1,302.2L219.1,302.2z"/>
	<g class="st2">
		<path class="st3" d="M239.3,190.1c-1-1.4-2.9-1.6-4.3-0.6c-1.4,1-1.6,2.9-0.6,4.3l15.2,20.6c1.7,2.3,1.6,5.7-0.3,7.8l-16.4,18.7
			h-46.2l-16.4-18.7c-1.9-2.1-2-5.6-0.3-7.8l30.2-40.8v23.3c-3.8,2.9-6.1,7.5-6.1,12.4c0,8.6,7,15.6,15.6,15.6s15.6-7,15.6-15.6
			c0-4.7-2.1-9.1-5.7-12V174l6.7,9.1c1,1.4,2.9,1.6,4.3,0.6c1.4-1,1.6-2.9,0.6-4.3L218,161.6c-2.1-2.8-5.2-4.4-8.5-4.4
			s-6.4,1.6-8.5,4.4l-36.3,49c-3.4,4.6-3.1,11.3,0.6,15.5l13.7,15.6c-3.4,1.6-5.8,5.1-5.8,9.1v14.6c0,4.5,3,8.3,7,9.6l0.8,24.2
			c0.1,1.7,1.4,3,3.1,3h0.1c1.7-0.1,3-1.5,3-3.2l-0.8-23.5h46.5l-0.8,23.5c-0.1,1.7,1.3,3.1,3,3.2h0.1c1.6,0,3-1.3,3.1-3l0.8-24.3
			c3.9-1.4,6.6-5.1,6.6-9.4v-14.6c0-4-2.4-7.5-5.8-9.1l13.7-15.6c3.7-4.3,4-10.9,0.6-15.5L239.3,190.1z M209.8,163.4
			c1.4,0,2.6,0.7,3.5,1.9l0.3,0.4v32.9c0,1,0.5,2,1.4,2.6c2.7,1.8,4.3,4.7,4.3,7.9c0,5.2-4.3,9.5-9.5,9.5s-9.5-4.3-9.5-9.5
			c0-3.4,1.7-6.4,4.6-8.1c0.9-0.6,1.5-1.6,1.5-2.6v-33.2C207.3,164.1,208.5,163.4,209.8,163.4L209.8,163.4z M239.9,265.5
			c0,2.1-1.7,3.9-3.9,3.9h-52.5c-2.1,0-3.9-1.7-3.9-3.9v-14.6c0-2.1,1.7-3.9,3.9-3.9H236c2.1,0,3.9,1.7,3.9,3.9V265.5z"/>
		<path class="st3" d="M148.8,191c0.4-9.7,3.1-19.2,7.9-27.7c0.8-1.5,0.3-3.3-1.2-4.2c-1.5-0.8-3.3-0.3-4.2,1.2
			c-5.3,9.3-8.3,19.9-8.7,30.7c-5.3,1.3-9.2,6.2-9.2,11.9c0,6.7,5.5,12.2,12.2,12.2s12.2-5.5,12.2-12.2
			C157.9,197.2,154,192.4,148.8,191L148.8,191z M145.6,209c-3.4,0-6.1-2.7-6.1-6.1s2.7-6.1,6.1-6.1s6.1,2.7,6.1,6.1
			S149,209,145.6,209z"/>
		<path class="st3" d="M307.7,117.8h-9.9c-3.6,0-6.5,2.9-6.5,6.5v1.9h-69.9v-1.9c0-3.6-2.9-6.5-6.5-6.5H205c-3.6,0-6.5,2.9-6.5,6.5
			v1.9h-69.9v-1.9c0-3.6-2.9-6.5-6.5-6.5h-9.9c-3.6,0-6.5,2.9-6.5,6.5v9.9c0,3.6,2.9,6.5,6.5,6.5h9.9c3.6,0,6.5-2.9,6.5-6.5v-1.9
			h53.2c-8.5,3.9-16.2,9.6-22.5,16.8c-1.1,1.3-1,3.2,0.3,4.3c0.6,0.5,1.3,0.8,2,0.8c0.9,0,1.7-0.4,2.3-1
			c9.1-10.3,21.3-17.2,34.6-19.7v0.8c0,3.6,2.9,6.5,6.5,6.5h9.9c3.6,0,6.5-2.9,6.5-6.5v-0.8c27.8,5.2,48.7,29.3,49.8,57.7
			c-5.2,1.4-9.1,6.2-9.1,11.8c0,6.7,5.5,12.2,12.2,12.2s12.2-5.5,12.2-12.2c0-5.7-3.9-10.5-9.2-11.9c-1-25.8-16.7-48.3-39.3-58.7
			h53.2v1.9c0,3.6,2.9,6.5,6.5,6.5h9.9c3.6,0,6.5-2.9,6.5-6.5v-9.9C314.2,120.7,311.3,117.8,307.7,117.8L307.7,117.8z M122.5,134.1
			c0,0.2-0.2,0.4-0.4,0.4h-9.9c-0.2,0-0.4-0.2-0.4-0.4v-9.9c0-0.2,0.2-0.4,0.4-0.4h9.9c0.2,0,0.4,0.2,0.4,0.4V134.1z M280.5,202.9
			c0,3.4-2.7,6.1-6.1,6.1s-6.1-2.7-6.1-6.1s2.7-6.1,6.1-6.1S280.5,199.5,280.5,202.9z M215.3,134.1c0,0.2-0.2,0.4-0.4,0.4H205
			c-0.2,0-0.4-0.2-0.4-0.4v-9.9c0-0.2,0.2-0.4,0.4-0.4h9.9c0.2,0,0.4,0.2,0.4,0.4V134.1z M308.1,134.1c0,0.2-0.2,0.4-0.4,0.4h-9.9
			c-0.2,0-0.4-0.2-0.4-0.4v-9.9c0-0.2,0.2-0.4,0.4-0.4h9.9c0.2,0,0.4,0.2,0.4,0.4V134.1z"/>
	</g>
</g>
<g>
	<g>
		<path class="st4" d="M180.7,276.3L180.7,276.3c-1.4,0-3.4-0.5-5.4-2.7c-5.5-6.1-10.6-11.8-25.5-11.8c-3.8,0-8.2,0.4-13,1.2
			c-21.5,3.4-22.5,3.4-22.9,3.4c-0.2,0-0.3,0-0.5-0.1c-2-0.1-10.7-0.9-13.1-13.7c-0.1-0.1-0.1-0.3-0.1-0.4c0-0.2,0-0.3,0-0.5h-0.1
			c-1.7-15.2,9.3-17.4,9.4-17.5v0.1c0.1,0,0.1-0.1,0.2-0.1v-0.1c0.1,0,0.2,0,0.3,0c2.7-0.7,8.7-1.5,22.1-3.3
			c25.4-3.5,29.5-12.1,33.8-21.2c1.4-2.9,3.6-4.5,6.2-4.5c3,0,5.9,2.3,6.3,5.2l8.6,58.9c0.3,1.6-0.4,3.4-1.5,4.8
			C184.2,275.5,182.5,276.3,180.7,276.3z M149.8,258.2c16.5,0,22.7,6.9,28.1,12.9c1,1.1,1.9,1.6,2.8,1.6l0,0c0.8,0,1.5-0.4,2-1
			c0.5-0.6,0.8-1.3,0.7-1.9l-8.7-58.8c-0.2-1-1.4-2.1-2.8-2.1c-1.5,0-2.4,1.3-2.9,2.4c-4.3,9.2-9.2,19.5-36.6,23.2
			c-16,2.2-20.6,2.9-21.9,3.1c-0.2,0.1-0.3,0.2-0.5,0.2c-0.3,0.1-7.8,1.7-6.5,13.5c0,0.1,0,0.1,0,0.2c0,0.1,0,0.1,0.1,0.2
			c1.9,10.3,8,11.1,9.8,11.1c0.2-0.1,0.4,0,0.6,0.1c1-0.1,5.2-0.7,22.1-3.3C141.2,258.7,145.8,258.2,149.8,258.2z"/>
		<path class="st4" d="M144.1,262.2c-0.9,0-1.6-0.7-1.8-1.5l-4.3-28.9c-0.2-1,0.5-1.9,1.5-2c1-0.1,1.9,0.6,2,1.5l4.3,28.9
			c0.2,1-0.5,1.9-1.5,2C144.3,262.2,144.2,262.2,144.1,262.2z"/>
		<path class="st4" d="M111.9,246.7c-0.9,0-1.6-0.7-1.8-1.5c-0.2-1,0.5-1.9,1.5-2l13-1.9c1-0.1,1.9,0.6,2,1.5s-0.5,1.9-1.5,2
			l-13,1.9C112.1,246.7,112,246.7,111.9,246.7z"/>
		<path class="st4" d="M113.2,255.4c-0.9,0-1.6-0.7-1.8-1.5c-0.2-1,0.5-1.9,1.5-2l13-1.9c1-0.1,1.9,0.6,2,1.5c0.2,1-0.5,1.9-1.5,2
			l-13,1.9C113.3,255.4,113.3,255.4,113.2,255.4z"/>
		<path class="st4" d="M142.7,289.8L142.7,289.8c-3.4,0-5.3-2.1-5.5-2.3L118.4,265c-0.4-0.5-0.5-1.2-0.3-1.8c0.3-0.6,0.8-1,1.4-1.1
			l18.3-2.5c0.6-0.1,1.3,0.2,1.7,0.7l16,20.4c0.3,0.4,0.5,0.9,0.4,1.4c-0.2,0.9-0.2,0.9-7.5,5.9
			C146.4,289.1,144.5,289.8,142.7,289.8z M139.8,285c0,0,1,1.1,2.8,1.1c1.1,0,2.4-0.5,3.7-1.3c2.6-1.8,4.3-2.9,5.2-3.6l-14.3-18.1
			l-14.1,2L139.8,285L139.8,285z"/>
		<path class="st4" d="M207.5,262.6c-0.5,0-0.9-0.2-1.2-0.5c-0.7-0.7-0.8-1.8-0.1-2.5c6.2-6.5,9-15.5,7.7-24.7
			c-1.3-9.1-6.8-17.2-14.7-21.6c-0.9-0.5-1.2-1.6-0.7-2.4c0.5-0.9,1.6-1.2,2.4-0.7c8.8,4.9,15,14,16.4,24.2
			c1.5,10.3-1.6,20.4-8.6,27.7C208.4,262.4,207.9,262.6,207.5,262.6z"/>
		<path class="st4" d="M195.1,254.2c-0.4,0-0.9-0.2-1.2-0.5c-0.8-0.7-0.8-1.8-0.2-2.5c4-4.6,5.8-10,5.1-15.1
			c-0.8-5.1-4.1-9.7-9.3-13c-0.9-0.5-1.1-1.6-0.6-2.5c0.5-0.9,1.6-1.1,2.5-0.6c6.1,3.8,10,9.3,10.9,15.5c0.9,6.1-1.2,12.5-5.9,18
			C196.1,254,195.6,254.2,195.1,254.2z"/>
	</g>
	<g>
		<g>
			<path class="st4" d="M289.8,206.8c-1.2,0.5-2.9,0.4-2.9,0.4c2.3-1,2.8-2.6,2.8-2.6c-2.6,0.9-3.6,0.5-3.6,0.5l0,0
				c-0.8-1.1-2-2-3.4-2.3c-2.9-0.6-5.7,1.3-6.3,4.2c-0.1,0.3-0.1,0.6-0.1,0.9l0,0c-8-2.3-9.2-7.4-9.2-7.4c-3.3,3.7,0,7.1,0,7.1
				c-1.4-0.2-2-1.1-2-1.1c-1.1,4.2,2.9,6,2.9,6c-1.6,0.1-2.2-0.5-2.2-0.5c0.5,3.8,4,4.6,4,4.6c-3.9,2.1-7.9,0.7-7.9,0.7l-0.1-0.1
				c2,1.9,4.6,3.3,7.5,3.9c8.1,1.6,15.9-3.7,17.6-11.8l0,0c0.1-0.2,0.1-0.3,0.1-0.4c0.1-0.1,0.1-0.2,0-0.3
				C288.9,208.1,289.8,206.8,289.8,206.8z"/>
		</g>
		<path class="st4" d="M292.8,240.4c-0.4,0.1-0.8,0.1-1.2-0.1l-41.7-8.2c-1-0.2-1.9-0.8-2.4-1.7c-0.6-0.9-0.8-1.9-0.6-2.9l8.2-41.7
			c0.4-2,2.4-3.5,4.6-3l41.7,8.2c1,0.2,1.9,0.8,2.4,1.7s0.8,1.9,0.6,2.9l-8.2,41.7C295.8,239,294.5,240.2,292.8,240.4z M258.9,186.4
			l-0.4,0.2l-8.2,41.7l0.2,0.4l41.8,8.2c0.1,0,0.2-0.1,0.3-0.3l8.2-41.7c0.1-0.1-0.1-0.3-0.2-0.4L258.9,186.4z"/>
	</g>
	<g>
		<path class="st4" d="M133.8,190.5c-2,0-3.8-1.6-3.9-3.7l-2.4-42.4c-0.1-2.1,1.5-4,3.6-4.1l42.4-2.4l0,0c2.2,0,4,1.6,4.1,3.7
			l2.4,42.4c0.1,2.1-1.5,4-3.6,4.1L133.8,190.5z M173.8,141.6l-42.4,2.4c-0.2,0-0.3,0.2-0.3,0.3l2.4,42.4c0,0.2,0.2,0.3,0.3,0.3v1.8
			V187l42.4-2.4c0.2,0,0.3-0.2,0.3-0.3l-2.4-42.4C174.1,141.7,174,141.6,173.8,141.6z"/>
		<path class="st4" d="M168.4,153.2l-0.3-4.8c0,0-1.8,0.1-4.2,0.3s-6.8,2.4-6.3,9.6c0,0.4,0.1,0.7,0.1,1.1l-4.1,0.3l0.3,5l4.1-0.3
			c0.4,6.9,0.8,14.7,0.8,14.7l5.8-0.3c0,0-0.5-8.3-0.8-14.7l3.8-0.2l-0.3-5l-3.8,0.2c-0.1-0.9,0-0.3-0.1-0.7
			C163.2,154.7,164.9,153.4,168.4,153.2z"/>
	</g>
	<g>
		<path class="st4" d="M255,317.1c-0.5,0-1.1-0.1-1.5-0.3l-39-16.9c-1.9-0.9-2.8-3.1-2-5.1l16.9-39c0.8-1.9,3.1-2.8,5.1-2l39,16.9
			c1,0.4,1.7,1.2,2.1,2.1c0.4,1,0.4,2-0.1,2.9l-16.9,39C257.9,316.2,256.6,317.1,255,317.1z M232.9,257.1l-0.4,0.2l-16.9,39
			c-0.1,0.2,0,0.3,0.2,0.4l39.1,16.9c0.1,0,0.2-0.1,0.3-0.2l16.9-39c0.1-0.1,0-0.3-0.2-0.4L232.9,257.1z"/>
		<g>
			<path class="st4" d="M255,279.7l-15.4-6.7c-2.3-1-5,0.1-6,2.4l-3.5,8.1c-1,2.3,0.1,5,2.4,6l15.4,6.7c2.3,1,5-0.1,6-2.4l3.5-8.1
				C258.4,283.4,257.3,280.7,255,279.7z M239.2,287.1l3.2-7.4l5.4,6.7L239.2,287.1z"/>
		</g>
	</g>
	<path class="st4" d="M240.7,176.6c-0.5,0-1.1-0.1-1.5-0.3l-39-16.9c-1.9-0.9-2.8-3.1-2-5.1l16.9-39c0.8-1.9,3.1-2.8,5.1-2l39,16.9
		c1,0.4,1.7,1.2,2.1,2.1c0.4,1,0.4,2-0.1,2.9l-16.9,39C243.6,175.7,242.2,176.6,240.7,176.6z M218.6,116.6l-0.4,0.2l-16.9,39
		c-0.1,0.2,0,0.3,0.2,0.4l39.1,16.9c0.1,0,0.2-0.1,0.3-0.2l16.9-39c0.1-0.1,0-0.3-0.2-0.4L218.6,116.6z"/>
	<g>
		<path id="path2834-5_1_" class="st4" d="M234.6,136.4c-0.2-0.1-0.4-0.2-0.4-0.1c-0.1,0.2-0.2,0.4-0.3,0.6c0,0.2,0,0.3,0.2,0.3
			c2,1.1,2.5,2,1.6,2.8l-11.2,10.2c-0.4,0.3-0.7,0.3-0.7,0.1l-0.6-15.4c-0.1-1.3,0.9-1.6,1.5-1.4c0.2,0.1,0.4,0.1,0.5,0.2
			c0.2,0.1,0.3-0.1,0.3-0.2c0.1-0.1,0.2-0.4,0.3-0.6c0-0.1-0.1-0.1-0.3-0.2c-0.7-0.3-2.1-0.8-3.9-1.5c-1.6-0.7-2-1-2.6-1.2
			c-0.2-0.1-0.4-0.2-0.4-0.1c-0.2,0.2-0.2,0.5-0.3,0.6c-0.1,0.2,0,0.3,0.2,0.3c1.1,0.6,1.7,1,1.8,2.8l0.8,19.2c0,0.5,0.2,0.9,0.5,1
			c0.3,0.1,0.7,0,1.1-0.4l14.2-12.9c1.6-1.5,2.7-0.9,3.9-0.5c0.2,0.1,0.3,0,0.3-0.2c0.1-0.1,0.2-0.4,0.3-0.6c0-0.1-0.2-0.1-0.4-0.2
			c-0.7-0.3-1.2-0.4-2.7-1C236.7,137.4,235.3,136.7,234.6,136.4z"/>
		<path id="path2834-5-1_1_" class="st4" d="M242.4,139.7c-0.2-0.1-0.4-0.2-0.4-0.1c-0.1,0.2-0.2,0.4-0.3,0.6c0,0.2,0,0.3,0.2,0.3
			c2,1.1,2.5,2,1.6,2.8l-11.1,10.1c-0.4,0.3-0.7,0.3-0.7,0.1l-0.6-15.4c-0.1-1.3,0.9-1.6,1.5-1.4c0.2,0.1,0.4,0.1,0.5,0.2
			s0.3-0.1,0.3-0.2c0.1-0.1,0.2-0.4,0.3-0.6c0-0.1-0.1-0.1-0.3-0.2c-0.7-0.3-2.1-0.8-3.9-1.5c-1.6-0.7-2-1-2.6-1.2
			c-0.2-0.1-0.4-0.2-0.4-0.1c-0.2,0.2-0.2,0.5-0.3,0.6c-0.1,0.2,0,0.3,0.2,0.3c1.1,0.6,1.7,1,1.8,2.8L229,156c0,0.5,0.2,0.9,0.5,1
			c0.3,0.1,0.7,0,1.1-0.4l14.2-12.9c1.6-1.5,2.7-0.9,3.9-0.5c0.2,0.1,0.3,0,0.3-0.2c0.1-0.1,0.2-0.4,0.3-0.6c0-0.1-0.2-0.1-0.4-0.2
			c-0.7-0.3-1.2-0.4-2.7-1C244.4,140.6,243,139.9,242.4,139.7z"/>
	</g>
</g>
</svg>
