<?xml version="1.0" encoding="utf-8"?>
<!-- Generator: Adobe Illustrator 25.3.1, SVG Export Plug-In . SVG Version: 6.00 Build 0)  -->
<svg version="1.1" id="Layer_1" xmlns="http://www.w3.org/2000/svg" xmlns:xlink="http://www.w3.org/1999/xlink" x="0px" y="0px"
	 viewBox="0 0 420 420" style="enable-background:new 0 0 420 420;" xml:space="preserve">
<style type="text/css">
	.st0{display:none;}
	.st1{display:inline;fill:#595CA9;}
	.st2{display:inline;}
	.st3{fill:#595CA9;}
	.st4{fill:none;}
	.st5{fill:#FFFFFF;}
</style>
<g class="st0">
	<path class="st1" d="M219.1,302.2c-1.7,0-3.1-1.4-3.1-3.1V291c0-1.2-1-2.1-2.1-2.1h-8.2c-1.2,0-2.1,1-2.1,2.1v8.2
		c0,1.7-1.4,3.1-3.1,3.1s-3.1-1.4-3.1-3.1V291c0-4.6,3.7-8.3,8.3-8.3h8.2c4.6,0,8.3,3.7,8.3,8.3v8.2
		C222.2,300.8,220.8,302.2,219.1,302.2L219.1,302.2z"/>
	<g class="st2">
		<path class="st3" d="M239.3,190.1c-1-1.4-2.9-1.6-4.3-0.6c-1.4,1-1.6,2.9-0.6,4.3l15.2,20.6c1.7,2.3,1.6,5.7-0.3,7.8l-16.4,18.7
			h-46.2l-16.4-18.7c-1.9-2.1-2-5.6-0.3-7.8l30.2-40.8v23.3c-3.8,2.9-6.1,7.5-6.1,12.4c0,8.6,7,15.6,15.6,15.6s15.6-7,15.6-15.6
			c0-4.7-2.1-9.1-5.7-12V174l6.7,9.1c1,1.4,2.9,1.6,4.3,0.6c1.4-1,1.6-2.9,0.6-4.3L218,161.6c-2.1-2.8-5.2-4.4-8.5-4.4
			s-6.4,1.6-8.5,4.4l-36.3,49c-3.4,4.6-3.1,11.3,0.6,15.5l13.7,15.6c-3.4,1.6-5.8,5.1-5.8,9.1v14.6c0,4.5,3,8.3,7,9.6l0.8,24.2
			c0.1,1.7,1.4,3,3.1,3h0.1c1.7-0.1,3-1.5,3-3.2l-0.8-23.5h46.5l-0.8,23.5c-0.1,1.7,1.3,3.1,3,3.2h0.1c1.6,0,3-1.3,3.1-3l0.8-24.3
			c3.9-1.4,6.6-5.1,6.6-9.4v-14.6c0-4-2.4-7.5-5.8-9.1l13.7-15.6c3.7-4.3,4-10.9,0.6-15.5L239.3,190.1z M209.8,163.4
			c1.4,0,2.6,0.7,3.5,1.9l0.3,0.4v32.9c0,1,0.5,2,1.4,2.6c2.7,1.8,4.3,4.7,4.3,7.9c0,5.2-4.3,9.5-9.5,9.5s-9.5-4.3-9.5-9.5
			c0-3.4,1.7-6.4,4.6-8.1c0.9-0.6,1.5-1.6,1.5-2.6v-33.2C207.3,164.1,208.5,163.4,209.8,163.4L209.8,163.4z M239.9,265.5
			c0,2.1-1.7,3.9-3.9,3.9h-52.5c-2.1,0-3.9-1.7-3.9-3.9v-14.6c0-2.1,1.7-3.9,3.9-3.9H236c2.1,0,3.9,1.7,3.9,3.9V265.5z"/>
		<path class="st3" d="M148.8,191c0.4-9.7,3.1-19.2,7.9-27.7c0.8-1.5,0.3-3.3-1.2-4.2c-1.5-0.8-3.3-0.3-4.2,1.2
			c-5.3,9.3-8.3,19.9-8.7,30.7c-5.3,1.3-9.2,6.2-9.2,11.9c0,6.7,5.5,12.2,12.2,12.2s12.2-5.5,12.2-12.2
			C157.9,197.2,154,192.4,148.8,191L148.8,191z M145.6,209c-3.4,0-6.1-2.7-6.1-6.1s2.7-6.1,6.1-6.1s6.1,2.7,6.1,6.1
			S149,209,145.6,209z"/>
		<path class="st3" d="M307.7,117.8h-9.9c-3.6,0-6.5,2.9-6.5,6.5v1.9h-69.9v-1.9c0-3.6-2.9-6.5-6.5-6.5H205c-3.6,0-6.5,2.9-6.5,6.5
			v1.9h-69.9v-1.9c0-3.6-2.9-6.5-6.5-6.5h-9.9c-3.6,0-6.5,2.9-6.5,6.5v9.9c0,3.6,2.9,6.5,6.5,6.5h9.9c3.6,0,6.5-2.9,6.5-6.5v-1.9
			h53.2c-8.5,3.9-16.2,9.6-22.5,16.8c-1.1,1.3-1,3.2,0.3,4.3c0.6,0.5,1.3,0.8,2,0.8c0.9,0,1.7-0.4,2.3-1
			c9.1-10.3,21.3-17.2,34.6-19.7v0.8c0,3.6,2.9,6.5,6.5,6.5h9.9c3.6,0,6.5-2.9,6.5-6.5v-0.8c27.8,5.2,48.7,29.3,49.8,57.7
			c-5.2,1.4-9.1,6.2-9.1,11.8c0,6.7,5.5,12.2,12.2,12.2s12.2-5.5,12.2-12.2c0-5.7-3.9-10.5-9.2-11.9c-1-25.8-16.7-48.3-39.3-58.7
			h53.2v1.9c0,3.6,2.9,6.5,6.5,6.5h9.9c3.6,0,6.5-2.9,6.5-6.5v-9.9C314.2,120.7,311.3,117.8,307.7,117.8L307.7,117.8z M122.5,134.1
			c0,0.2-0.2,0.4-0.4,0.4h-9.9c-0.2,0-0.4-0.2-0.4-0.4v-9.9c0-0.2,0.2-0.4,0.4-0.4h9.9c0.2,0,0.4,0.2,0.4,0.4V134.1z M280.5,202.9
			c0,3.4-2.7,6.1-6.1,6.1s-6.1-2.7-6.1-6.1s2.7-6.1,6.1-6.1S280.5,199.5,280.5,202.9z M215.3,134.1c0,0.2-0.2,0.4-0.4,0.4H205
			c-0.2,0-0.4-0.2-0.4-0.4v-9.9c0-0.2,0.2-0.4,0.4-0.4h9.9c0.2,0,0.4,0.2,0.4,0.4L215.3,134.1L215.3,134.1z M308.1,134.1
			c0,0.2-0.2,0.4-0.4,0.4h-9.9c-0.2,0-0.4-0.2-0.4-0.4v-9.9c0-0.2,0.2-0.4,0.4-0.4h9.9c0.2,0,0.4,0.2,0.4,0.4V134.1z"/>
	</g>
</g>
<g>
	<rect x="123.1" y="141.8" class="st4" width="139.1" height="115"/>
	<path class="st4" d="M123.1,256.8v13.4l0,0l0,0h25.8c1.5,0,2.7,1.2,2.7,2.7c0,0.3,0,0.5-0.1,0.8l-7,23.3l45.1-25
		c2-1.1,4.3-1.7,6.6-1.7h66.1v-13.4H123.1z"/>
	<polygon class="st4" points="123.1,263.6 123.1,270.2 137.6,270.2 143.2,256.8 125.9,256.8 	"/>
	<path class="st5" d="M144.5,298.2c-0.3,0-0.7-0.1-0.8-0.3c-0.4-0.4-0.5-0.9-0.4-1.5l7-23.3c0.1-0.4,0-0.8-0.3-1.2
		c-0.3-0.4-0.7-0.5-1.1-0.5h-25.8c-0.7,0-1.2-0.4-1.3-0.9c0-0.1,0-0.3,0-0.4l0,0V141.8c0-0.8,0.5-1.3,1.3-1.3h139.1
		c0.8,0,1.3,0.5,1.3,1.3v18.7c0,0.8-0.5,1.3-1.3,1.3c-0.8,0-1.3-0.5-1.3-1.3v-17.4H124.5v125.7h24.5c2.3,0,4,1.7,4,4
		c0,0.4,0,0.8-0.1,1.2l-6,20.2l42.3-23.5c2.1-1.2,4.7-1.9,7.1-1.9h64.7v-57.1c0-0.8,0.5-1.3,1.3-1.3c0.8,0,1.3,0.5,1.3,1.3v58.4
		c0,0.8-0.5,1.3-1.3,1.3h-66.1c-2,0-4,0.5-5.9,1.5l-45.1,25C144.9,298.1,144.8,298.2,144.5,298.2z"/>
	<rect x="123.1" y="123.1" class="st4" width="139.1" height="18.7"/>
	<polygon class="st4" points="262.2,123.1 236.6,123.1 228.8,141.8 262.2,141.8 	"/>
	<polygon class="st4" points="200.1,123.1 182,123.1 174.1,141.8 192.1,141.8 	"/>
	<path class="st5" d="M262.2,143.1H123.1c-0.8,0-1.3-0.5-1.3-1.3v-18.7c0-0.8,0.5-1.3,1.3-1.3h42.1c0.8,0,1.3,0.5,1.3,1.3
		c0,0.8-0.5,1.3-1.3,1.3h-40.8v16h136.4v-16h-87.6c-0.8,0-1.3-0.5-1.3-1.3c0-0.8,0.5-1.3,1.3-1.3h88.9c0.8,0,1.3,0.5,1.3,1.3v18.7
		C263.5,142.5,263,143.1,262.2,143.1z"/>
	<circle class="st5" cx="132.5" cy="132.4" r="2"/>
	<circle class="st5" cx="141.8" cy="132.4" r="2"/>
	<circle class="st5" cx="151.2" cy="132.4" r="2"/>
	<path class="st5" d="M247.5,158.5h-14.7c-1.1,0-2-0.9-2-2c0-1.1,0.9-2,2-2h14.7c1.1,0,2,0.9,2,2
		C249.5,157.6,248.5,158.5,247.5,158.5z"/>
	<path class="st5" d="M223.4,158.5h-16c-1.1,0-2-0.9-2-2c0-1.1,0.9-2,2-2h16c1.1,0,2,0.9,2,2C225.4,157.6,224.5,158.5,223.4,158.5z"
		/>
	<path class="st5" d="M235.4,169.2h-28.1c-1.1,0-2-0.9-2-2c0-1.1,0.9-2,2-2h28.1c1.1,0,2,0.9,2,2
		C237.4,168.3,236.5,169.2,235.4,169.2z"/>
	<path class="st5" d="M244.8,179.9h-16c-1.1,0-2-0.9-2-2s0.9-2,2-2h16c1.1,0,2,0.9,2,2S245.9,179.9,244.8,179.9z"/>
	<path class="st5" d="M219.4,179.9h-12c-1.1,0-2-0.9-2-2s0.9-2,2-2h12c1.1,0,2,0.9,2,2S220.5,179.9,219.4,179.9z"/>
	<path class="st5" d="M234.1,190.6h-26.7c-1.1,0-2-0.9-2-2c0-1.1,0.9-2,2-2h26.7c1.1,0,2,0.9,2,2
		C236.1,189.7,235.2,190.6,234.1,190.6z"/>
	<path class="st5" d="M223.4,201.3h-16c-1.1,0-2-0.9-2-2c0-1.1,0.9-2,2-2h16c1.1,0,2,0.9,2,2C225.4,200.4,224.5,201.3,223.4,201.3z"
		/>
	<path class="st5" d="M213.4,212h-26.1c-1.1,0-2-0.9-2-2c0-1.1,0.9-2,2-2h26.1c1.1,0,2,0.9,2,2C215.4,211.1,214.4,212,213.4,212z"/>
	<path class="st5" d="M177.9,212h-40.8c-1.1,0-2-0.9-2-2c0-1.1,0.9-2,2-2h40.8c1.1,0,2,0.9,2,2C179.9,211.1,179,212,177.9,212z"/>
	<path class="st5" d="M206.7,222.7h-36.8c-1.1,0-2-0.9-2-2c0-1.1,0.9-2,2-2h36.8c1.1,0,2,0.9,2,2
		C208.7,221.8,207.8,222.7,206.7,222.7z"/>
	<path class="st5" d="M160.6,222.7h-23.4c-1.1,0-2-0.9-2-2c0-1.1,0.9-2,2-2h23.4c1.1,0,2,0.9,2,2
		C162.6,221.8,161.6,222.7,160.6,222.7z"/>
	<path class="st5" d="M204,233.4H186c-1.1,0-2-0.9-2-2c0-1.1,0.9-2,2-2H204c1.1,0,2,0.9,2,2C206,232.5,205.1,233.4,204,233.4z"/>
	<path class="st5" d="M176.6,233.4h-39.4c-1.1,0-2-0.9-2-2c0-1.1,0.9-2,2-2h39.4c1.1,0,2,0.9,2,2
		C178.6,232.5,177.7,233.4,176.6,233.4z"/>
	<path class="st5" d="M206,244.1h-32.1c-1.1,0-2-0.9-2-2c0-1.1,0.9-2,2-2H206c1.1,0,2,0.9,2,2C208,243.2,207.1,244.1,206,244.1z"/>
	<path class="st5" d="M164.6,244.1h-27.4c-1.1,0-2-0.9-2-2c0-1.1,0.9-2,2-2h27.4c1.1,0,2,0.9,2,2
		C166.6,243.2,165.6,244.1,164.6,244.1z"/>
	<path class="st4" d="M295.5,163.1L285,152.6c-1.9-1.9-5.1-1.9-7,0l0,0l-5.2,5.2l17.4,17.4l5.2-5.2
		C297.3,168,297.5,164.9,295.5,163.1L295.5,163.1z"/>
	<path class="st4" d="M295.5,163.1l-6.4-6.4c-1.9-1.9-5.1-1.9-7,0l0,0l-5.2,5.2l13.4,13.4l5.2-5.2
		C297.3,168,297.5,164.9,295.5,163.1L295.5,163.1z"/>
	<path class="st5" d="M290.3,176.6c-0.4,0-0.7-0.1-0.9-0.4l-17.4-17.4c-0.3-0.3-0.4-0.5-0.4-0.9s0.1-0.7,0.4-0.9l5.2-5.2
		c2.4-2.4,6.4-2.4,8.8,0l10.4,10.4l0,0c2.4,2.4,2.4,6.4,0,8.8l-5.2,5.2C290.9,176.4,290.7,176.6,290.3,176.6z M274.7,157.9
		l15.5,15.4l4.3-4.3c1.3-1.5,1.3-3.6,0-5.1l-10.4-10.4c-1.5-1.3-3.6-1.3-5.1,0L274.7,157.9z"/>
	<polygon class="st4" points="206,242.1 222.1,236.7 211.4,225.9 	"/>
	<polygon class="st4" points="230.6,226.4 223.4,224.7 221.5,217.5 214.7,215.9 211.4,225.9 222.1,236.7 232.1,233.4 	"/>
	<path class="st5" d="M206,243.4c-0.4,0-0.7-0.1-0.9-0.4c-0.4-0.4-0.5-0.8-0.3-1.3l8.7-26.1c0.3-0.7,0.9-1.1,1.7-0.8
		c0.8,0.3,1.1,0.9,0.8,1.7l-7.9,23.5l23.5-7.9c0.7-0.3,1.5,0.1,1.7,0.8s-0.1,1.5-0.8,1.7l-26.1,8.7
		C206.3,243.4,206.2,243.4,206,243.4z"/>
	
		<rect x="210" y="188.4" transform="matrix(0.7071 -0.7071 0.7071 0.7071 -61.1346 231.8285)" class="st5" width="78.5" height="2.7"/>
	
		<rect x="219.1" y="197.4" transform="matrix(0.7071 -0.7071 0.7071 0.7071 -64.8754 240.9174)" class="st5" width="78.5" height="2.7"/>
	<path class="st5" d="M232.1,234.7c-0.1,0-0.3,0-0.4,0c-0.4-0.1-0.8-0.5-0.9-0.9l-1.3-6l-6.4-1.6c-0.5-0.1-0.8-0.5-0.9-0.9l-1.6-6.4
		l-6-1.3c-0.7-0.1-1.2-0.9-1.1-1.6c0-0.3,0.1-0.5,0.4-0.7l58.2-58.3c0.5-0.5,1.3-0.5,1.9,0l0,0l17.4,17.4c0.3,0.3,0.4,0.5,0.4,0.9
		s-0.1,0.7-0.4,0.9L233,234.3C232.8,234.6,232.5,234.7,232.1,234.7z M224.5,223.5l6.4,1.6c0.5,0.1,0.9,0.5,0.9,1.1l0.9,4.4
		l55.5-55.5l-15.4-15.4l-55.5,55.5l4.4,0.9c0.5,0.1,0.9,0.5,1.1,0.9L224.5,223.5z"/>
	<path class="st5" d="M222.1,238.1c-0.4,0-0.7-0.1-0.9-0.4L210.4,227c-0.5-0.5-0.7-1.3-0.1-1.9c0.5-0.5,1.3-0.7,1.9-0.1l0.1,0.1
		l10.7,10.7c0.5,0.5,0.5,1.3,0,1.9C222.7,237.9,222.5,238.1,222.1,238.1z"/>
	<rect x="136.5" y="155.2" class="st4" width="60.2" height="44.1"/>
	<path class="st5" d="M196.7,200.6h-60.2c-0.8,0-1.3-0.5-1.3-1.3v-44.1c0-0.8,0.5-1.3,1.3-1.3h60.2c0.8,0,1.3,0.5,1.3,1.3v44.1
		C198,200,197.5,200.6,196.7,200.6z M137.8,198h57.5v-41.4h-57.5V198z"/>
	<polygon class="st4" points="152.7,171.8 136.5,199.3 168.9,199.3 	"/>
	<polygon class="st5" points="152.7,171.8 145.2,184.5 152.7,187.1 160.2,184.5 	"/>
	<path class="st5" d="M168.9,200.6h-32.4c-0.8,0-1.3-0.5-1.3-1.3c0-0.3,0-0.5,0.1-0.7l16.2-27.4c0.3-0.4,0.7-0.7,1.2-0.7l0,0
		c0.5,0,0.9,0.3,1.2,0.7l16,27.4c0.3,0.4,0.3,0.9,0,1.3C169.7,200.4,169.3,200.6,168.9,200.6z M138.9,198h27.7l-13.9-23.5L138.9,198
		z"/>
	<polygon class="st4" points="177,166.3 157.6,199.3 196.4,199.3 	"/>
	<polygon class="st5" points="177,166.3 168,181.5 177,184.2 186,181.5 	"/>
	<path class="st5" d="M196.4,200.6h-38.8c-0.5,0-0.9-0.3-1.2-0.7c-0.3-0.4-0.3-0.9,0-1.3l19.4-33c0.3-0.4,0.7-0.7,1.2-0.7l0,0
		c0.5,0,0.9,0.3,1.2,0.7l19.4,33c0.3,0.4,0.3,0.9,0,1.3C197.3,200.4,196.9,200.6,196.4,200.6z M160,198h34.1L177,169L160,198z"/>
	<circle class="st5" cx="163.2" cy="166.5" r="4.7"/>
	<path class="st5" d="M262.2,258.1H123.1c-0.8,0-1.3-0.5-1.3-1.3c0-0.8,0.5-1.3,1.3-1.3h139.1c0.8,0,1.3,0.5,1.3,1.3
		C263.5,257.6,263,258.1,262.2,258.1z"/>
</g>
</svg>
