<?xml version="1.0" encoding="utf-8"?>
<!-- Generator: Adobe Illustrator 25.3.1, SVG Export Plug-In . SVG Version: 6.00 Build 0)  -->
<svg version="1.1" id="Layer_1" xmlns="http://www.w3.org/2000/svg" xmlns:xlink="http://www.w3.org/1999/xlink" x="0px" y="0px"
	 viewBox="0 0 420 420" style="enable-background:new 0 0 420 420;" xml:space="preserve">
<style type="text/css">
	.st0{display:none;}
	.st1{display:inline;fill:#595CA9;}
	.st2{display:inline;}
	.st3{fill:#595CA9;}
	.st4{fill:#FFFFFF;}
</style>
<g class="st0">
	<path class="st1" d="M219.1,302.2c-1.7,0-3.1-1.4-3.1-3.1V291c0-1.2-1-2.1-2.1-2.1h-8.2c-1.2,0-2.1,1-2.1,2.1v8.2
		c0,1.7-1.4,3.1-3.1,3.1s-3.1-1.4-3.1-3.1V291c0-4.6,3.7-8.3,8.3-8.3h8.2c4.6,0,8.3,3.7,8.3,8.3v8.2
		C222.2,300.8,220.8,302.2,219.1,302.2L219.1,302.2z"/>
	<g class="st2">
		<path class="st3" d="M239.3,190.1c-1-1.4-2.9-1.6-4.3-0.6c-1.4,1-1.6,2.9-0.6,4.3l15.2,20.6c1.7,2.3,1.6,5.7-0.3,7.8l-16.4,18.7
			h-46.2l-16.4-18.7c-1.9-2.1-2-5.6-0.3-7.8l30.2-40.8v23.3c-3.8,2.9-6.1,7.5-6.1,12.4c0,8.6,7,15.6,15.6,15.6
			c8.6,0,15.6-7,15.6-15.6c0-4.7-2.1-9.1-5.7-12V174l6.7,9.1c1,1.4,2.9,1.6,4.3,0.6c1.4-1,1.6-2.9,0.6-4.3l-13.2-17.8
			c-2.1-2.8-5.2-4.4-8.5-4.4c-3.3,0-6.4,1.6-8.5,4.4l-36.3,49c-3.4,4.6-3.1,11.3,0.6,15.5l13.7,15.6c-3.4,1.6-5.8,5.1-5.8,9.1v14.6
			c0,4.5,3,8.3,7,9.6l0.8,24.2c0.1,1.7,1.4,3,3.1,3c0,0,0.1,0,0.1,0c1.7-0.1,3-1.5,3-3.2l-0.8-23.5h46.5l-0.8,23.5
			c-0.1,1.7,1.3,3.1,3,3.2c0,0,0.1,0,0.1,0c1.6,0,3-1.3,3.1-3l0.8-24.3c3.9-1.4,6.6-5.1,6.6-9.4v-14.6c0-4-2.4-7.5-5.8-9.1
			l13.7-15.6c3.7-4.3,4-10.9,0.6-15.5L239.3,190.1z M209.8,163.4c1.4,0,2.6,0.7,3.5,1.9l0.3,0.4v32.9c0,1,0.5,2,1.4,2.6
			c2.7,1.8,4.3,4.7,4.3,7.9c0,5.2-4.3,9.5-9.5,9.5s-9.5-4.3-9.5-9.5c0-3.4,1.7-6.4,4.6-8.1c0.9-0.6,1.5-1.6,1.5-2.6v-33.2
			C207.3,164.1,208.5,163.4,209.8,163.4L209.8,163.4z M239.9,265.5c0,2.1-1.7,3.9-3.9,3.9h-52.5c-2.1,0-3.9-1.7-3.9-3.9v-14.6
			c0-2.1,1.7-3.9,3.9-3.9H236c2.1,0,3.9,1.7,3.9,3.9V265.5z"/>
		<path class="st3" d="M148.8,191c0.4-9.7,3.1-19.2,7.9-27.7c0.8-1.5,0.3-3.3-1.2-4.2c-1.5-0.8-3.3-0.3-4.2,1.2
			c-5.3,9.3-8.3,19.9-8.7,30.7c-5.3,1.3-9.2,6.2-9.2,11.9c0,6.7,5.5,12.2,12.2,12.2s12.2-5.5,12.2-12.2
			C157.9,197.2,154,192.4,148.8,191L148.8,191z M145.6,209c-3.4,0-6.1-2.7-6.1-6.1s2.7-6.1,6.1-6.1s6.1,2.7,6.1,6.1
			S149,209,145.6,209z"/>
		<path class="st3" d="M307.7,117.8h-9.9c-3.6,0-6.5,2.9-6.5,6.5v1.9h-69.9v-1.9c0-3.6-2.9-6.5-6.5-6.5h-9.9c-3.6,0-6.5,2.9-6.5,6.5
			v1.9h-69.9v-1.9c0-3.6-2.9-6.5-6.5-6.5h-9.9c-3.6,0-6.5,2.9-6.5,6.5v9.9c0,3.6,2.9,6.5,6.5,6.5h9.9c3.6,0,6.5-2.9,6.5-6.5v-1.9
			h53.2c-8.5,3.9-16.2,9.6-22.5,16.8c-1.1,1.3-1,3.2,0.3,4.3c0.6,0.5,1.3,0.8,2,0.8c0.9,0,1.7-0.4,2.3-1
			c9.1-10.3,21.3-17.2,34.6-19.7v0.8c0,3.6,2.9,6.5,6.5,6.5h9.9c3.6,0,6.5-2.9,6.5-6.5v-0.8c27.8,5.2,48.7,29.3,49.8,57.7
			c-5.2,1.4-9.1,6.2-9.1,11.8c0,6.7,5.5,12.2,12.2,12.2c6.7,0,12.2-5.5,12.2-12.2c0-5.7-3.9-10.5-9.2-11.9
			c-1-25.8-16.7-48.3-39.3-58.7h53.2v1.9c0,3.6,2.9,6.5,6.5,6.5h9.9c3.6,0,6.5-2.9,6.5-6.5v-9.9
			C314.2,120.7,311.3,117.8,307.7,117.8L307.7,117.8z M122.5,134.1c0,0.2-0.2,0.4-0.4,0.4h-9.9c-0.2,0-0.4-0.2-0.4-0.4v-9.9
			c0-0.2,0.2-0.4,0.4-0.4h9.9c0.2,0,0.4,0.2,0.4,0.4V134.1z M280.5,202.9c0,3.4-2.7,6.1-6.1,6.1s-6.1-2.7-6.1-6.1s2.7-6.1,6.1-6.1
			S280.5,199.5,280.5,202.9z M215.3,134.1c0,0.2-0.2,0.4-0.4,0.4h-9.9c-0.2,0-0.4-0.2-0.4-0.4v-9.9c0-0.2,0.2-0.4,0.4-0.4h9.9
			c0.2,0,0.4,0.2,0.4,0.4V134.1z M308.1,134.1c0,0.2-0.2,0.4-0.4,0.4h-9.9c-0.2,0-0.4-0.2-0.4-0.4v-9.9c0-0.2,0.2-0.4,0.4-0.4h9.9
			c0.2,0,0.4,0.2,0.4,0.4V134.1z"/>
	</g>
</g>
<g>
	<path class="st4" d="M221.2,224.1c-14.6,0-26.5,11.9-26.5,26.5s11.9,26.5,26.5,26.5c14.6,0,26.5-11.9,26.5-26.5
		S235.8,224.1,221.2,224.1z M216.5,259.5c-0.5-1.8-0.9-3.8-1.1-5.9h11.5c-0.2,2.1-0.6,4.1-1.1,5.9H216.5z M223.6,265.3
		c-0.8,1.7-1.7,3-2.4,4.1c-0.7-1.1-1.6-2.4-2.4-4.1H223.6z M215.4,247.7c0.2-2.1,0.6-4.1,1.1-5.9h9.4c0.5,1.8,0.9,3.8,1.1,5.9H215.4
		z M218.8,235.9c0.8-1.7,1.7-3,2.4-4.1c0.7,1.1,1.6,2.4,2.4,4.1H218.8z M212.3,235.9h-5.5c2.2-2.2,4.9-3.8,7.9-4.8
		C213.8,232.5,213,234.1,212.3,235.9z M210.4,241.8c-0.4,1.8-0.8,3.8-0.9,5.9h-8.7c0.3-2.1,0.9-4.1,1.8-5.9H210.4z M209.5,253.6
		c0.2,2.1,0.5,4.1,0.9,5.9h-7.8c-0.9-1.8-1.5-3.8-1.8-5.9H209.5z M212.3,265.3c0.7,1.8,1.6,3.4,2.4,4.8c-3-1-5.7-2.7-7.9-4.8H212.3z
		 M230.1,265.3h5.5c-2.2,2.2-4.9,3.8-7.9,4.8C228.5,268.8,229.3,267.2,230.1,265.3L230.1,265.3z M231.9,259.5
		c0.4-1.8,0.8-3.8,0.9-5.9h8.7c-0.3,2.1-0.9,4.1-1.8,5.9H231.9z M232.8,247.7c-0.2-2.1-0.5-4.1-0.9-5.9h7.8c0.9,1.8,1.5,3.8,1.8,5.9
		H232.8z M230.1,235.9c-0.7-1.8-1.6-3.4-2.4-4.8c3,1,5.7,2.7,7.9,4.8H230.1z"/>
	<path class="st4" d="M287.2,271.2l10.8-10.8l-32.6-5.4v-7.3h26.5c4.9,0,8.8-4,8.8-8.8V126.9c0-4.9-4-8.8-8.8-8.8H126.9
		c-4.9,0-8.8,4-8.8,8.8v111.9c0,4.9,4,8.8,8.8,8.8H177v32.4c0,4.9,4,8.8,8.8,8.8h73.1l1.5,9.1l10.8-10.8l14.7,14.7l15.9-15.9
		L287.2,271.2z M126.9,124h164.9c1.6,0,2.9,1.3,2.9,2.9v26.5H124v-26.5C124,125.3,125.3,124,126.9,124z M126.9,241.8
		c-1.6,0-2.9-1.3-2.9-2.9v-79.5h170.8v79.5c0,1.6-1.3,2.9-2.9,2.9h-26.5v-20.6c0-4.9-4-8.8-8.8-8.8h-70.7c-4.9,0-8.8,4-8.8,8.8v20.6
		H126.9z M185.8,283c-1.6,0-2.9-1.3-2.9-2.9v-58.9c0-1.6,1.3-2.9,2.9-2.9h70.7c1.6,0,2.9,1.3,2.9,2.9V254l-6.5-1.1l5,30.1H185.8z
		 M271.2,278.9l-6.9,6.9l-4.3-25.6l25.6,4.3l-6.9,6.9l14.7,14.7l-7.6,7.6L271.2,278.9z"/>
	<path class="st4" d="M147.5,129.9h-17.7v17.7h17.7V129.9z M141.7,141.7h-5.9v-5.9h5.9V141.7z"/>
	<path class="st4" d="M171.1,129.9h-17.7v17.7h17.7V129.9z M165.2,141.7h-5.9v-5.9h5.9V141.7z"/>
	<path class="st4" d="M194.7,129.9H177v17.7h17.7V129.9z M188.8,141.7h-5.9v-5.9h5.9V141.7z"/>
	<path class="st4" d="M288.9,165.2h-76.6v41.2h76.6V165.2z M283,200.6h-64.8v-29.5H283V200.6z"/>
	<path class="st4" d="M129.9,165.2h5.9v5.9h-5.9V165.2z"/>
	<path class="st4" d="M141.7,165.2h64.8v5.9h-64.8V165.2z"/>
	<path class="st4" d="M129.9,177h76.6v5.9h-76.6V177z"/>
	<path class="st4" d="M141.7,188.8h5.9v5.9h-5.9V188.8z"/>
	<path class="st4" d="M129.9,188.8h5.9v5.9h-5.9V188.8z"/>
	<path class="st4" d="M153.4,188.8h53v5.9h-53V188.8z"/>
	<path class="st4" d="M200.6,200.6h5.9v5.9h-5.9V200.6z"/>
	<path class="st4" d="M129.9,200.6h64.8v5.9h-64.8V200.6z"/>
	<path class="st4" d="M129.9,235.9h41.2v-23.6h-41.2V235.9z M135.8,218.2h29.5V230h-29.5V218.2z"/>
	<path class="st4" d="M188.8,224.1h5.9v5.9h-5.9V224.1z"/>
	<path class="st4" d="M247.7,224.1h5.9v5.9h-5.9V224.1z"/>
	<path class="st4" d="M188.8,271.2h5.9v5.9h-5.9V271.2z"/>
</g>
</svg>
